Coordinates
version=1
nRows=39
nColumns=18
inDegrees=yes

Units are S.I. units (second, meters, Newtons, ...)
If the header above contains a line with 'inDegrees', this indicates whether rotational values are in degrees (yes) or radians (no).

endheader
time	ground_thorax_rot_x	ground_thorax_rot_y	ground_thorax_rot_z	ground_thorax_tx	ground_thorax_ty	ground_thorax_tz	clav_prot	clav_elev	scapula_abduction	scapula_elevation	scapula_upward_rot	scapula_winging	plane_elv	shoulder_elv	axial_rot	elbow_flexion	pro_sup
      8.18000000	     -0.30317393	      2.07384577	     -7.41704802	     -0.00387053	      0.00708173	     -0.00753814	    -39.84747766	      3.02132276	    -29.02723338	     -4.42977926	     33.97931583	     -6.05980176	     24.45463861	     73.92159650	    -22.04685274	      0.00000000	     34.32000000
      8.19000000	     -0.38903054	      2.07592384	     -7.36329046	     -0.00399764	      0.00696591	     -0.00737454	    -39.78622186	      3.10474079	    -29.15169981	     -4.32365653	     33.72122823	     -6.00517638	     24.18262454	     73.35272455	    -22.10558556	      0.00000000	     34.32000000
      8.20000000	     -0.15180949	      2.03278319	     -7.32634028	     -0.00398848	      0.00709477	     -0.00701894	    -39.76638366	      3.06775102	    -29.21750789	     -4.32372973	     33.57250486	     -5.95208097	     24.10509350	     73.18913980	    -22.11261938	      0.00000000	     34.32000000
      8.21000000	     -0.24957419	      2.50077251	     -7.29497794	     -0.00408934	      0.00704724	     -0.00732678	    -39.93384848	      2.99949962	    -29.45729368	     -4.38327849	     33.55814459	     -6.00852959	     23.52405876	     72.46941360	    -22.22510888	      0.00000000	     34.32000000
      8.22000000	     -0.07666551	      2.48343798	     -7.26756752	     -0.00390995	      0.00713891	     -0.00715429	    -39.91780427	      2.97139722	    -29.50504387	     -4.38334941	     33.44611041	     -5.96776683	     23.47631162	     72.33814025	    -22.23304301	      0.00000000	     34.32000000
      8.23000000	     -0.28532212	      2.83426857	     -7.17354238	     -0.00401609	      0.00711998	     -0.00741171	    -40.10357134	      2.97969704	    -29.81742930	     -4.38578588	     33.40497412	     -6.05460923	     23.14913726	     71.52797390	    -22.37700195	      0.00000000	     34.32000000
      8.24000000	     -0.10645416	      2.77749491	     -7.14499064	     -0.00401139	      0.00730355	     -0.00717331	    -40.10662486	      2.95851454	    -29.89382361	     -4.38296542	     33.29615586	     -6.02629070	     23.07666918	     71.39646749	    -22.38576732	      0.00000000	     34.32000000
      8.25000000	     -0.06061075	      3.24392829	     -7.15308919	     -0.00426222	      0.00725041	     -0.00726061	    -40.46868391	      3.19675349	    -30.28331367	     -4.29754643	     33.61960160	     -6.35819272	     22.70618289	     70.28536253	    -22.93694094	      0.00000000	     34.32000000
      8.26000000	      0.18816593	      3.19942880	     -7.12331755	     -0.00425919	      0.00744666	     -0.00683192	    -40.44036428	      3.16865968	    -30.35498284	     -4.28699060	     33.44935020	     -6.29891584	     22.63038514	     70.10683435	    -22.94722192	      0.00000000	     34.32000000
      8.27000000	      0.15640410	      3.33010015	     -7.11930473	     -0.00426655	      0.00722496	     -0.00670545	    -40.37760817	      3.26582619	    -30.49880150	     -4.16646370	     33.16813216	     -6.24134481	     22.33750176	     69.55268307	    -23.01651715	      0.00000000	     34.32000000
      8.28000000	      0.05920243	      3.56691356	     -6.99823125	     -0.00436367	      0.00731291	     -0.00687101	    -40.41580491	      3.27965430	    -30.65224214	     -4.13884203	     33.04272991	     -6.23841716	     22.05344610	     68.89284458	    -23.13890956	      0.00000000	     34.32000000
      8.29000000	      0.06567767	      3.66738005	     -6.99249496	     -0.00437240	      0.00738427	     -0.00697289	    -40.47393037	      3.33828549	    -30.81043015	     -4.09021070	     32.97166343	     -6.27361092	     22.01569215	     68.38447642	    -23.29183895	      0.00000000	     34.32000000
      8.30000000	      0.05138143	      3.73207749	     -6.95839129	     -0.00438699	      0.00743664	     -0.00695835	    -40.54797525	      3.42779353	    -31.00467636	     -4.02085636	     32.89920686	     -6.32630588	     22.01136268	     67.84021409	    -23.48508914	      0.00000000	     34.32000000
      8.31000000	      0.24362436	      3.70215811	     -6.92834218	     -0.00439036	      0.00755408	     -0.00675591	    -40.53517074	      3.39860439	    -31.05945948	     -4.02078409	     32.78300291	     -6.28535334	     21.96100680	     67.70007062	    -23.49773600	      0.00000000	     34.32000000
      8.32000000	      0.26390458	      4.15572135	     -6.96308989	     -0.00453470	      0.00746235	     -0.00688013	    -40.84747688	      3.46422870	    -31.34881337	     -4.04630356	     33.05687752	     -6.52759499	     21.54679529	     66.72553352	    -24.02976910	      0.00000000	     34.32000000
      8.33000000	      0.45765162	      4.13569043	     -6.94542226	     -0.00445792	      0.00765485	     -0.00665025	    -40.81879145	      3.44283923	    -31.39720488	     -4.03617086	     32.92078581	     -6.47670941	     21.49529768	     66.57409500	    -24.03937458	      0.00000000	     34.32000000
      8.34000000	      0.23814762	      4.32612453	     -6.89218362	     -0.00452484	      0.00752113	     -0.00681202	    -40.82192068	      3.66607307	    -31.58870801	     -3.85361589	     32.77130517	     -6.52049225	     21.16297157	     65.72939332	    -24.19849699	      0.00000000	     34.32000000
      8.35000000	      0.28930339	      4.40462920	     -6.89604360	     -0.00459076	      0.00754290	     -0.00679110	    -40.86053684	      3.84511420	    -31.71239008	     -3.72993603	     32.76785402	     -6.59829636	     20.94509847	     65.05845424	    -24.37276857	      0.00000000	     34.32000000
      8.36000000	      0.42026958	      4.39049158	     -6.90360631	     -0.00467481	      0.00755216	     -0.00658944	    -40.82610676	      3.93122165	    -31.73007696	     -3.65749407	     32.71572357	     -6.59658896	     20.63271744	     64.48829935	    -24.52404563	      0.00000000	     34.32000000
      8.37000000	      0.51255266	      4.39160980	     -6.87492905	     -0.00477049	      0.00755756	     -0.00633442	    -40.75358071	      3.82320675	    -31.73386089	     -3.69220487	     32.50802366	     -6.47903357	     20.19966575	     64.04249214	    -24.52294417	      0.00000000	     34.32000000
      8.38000000	      0.80478945	      4.33550725	     -6.82824680	     -0.00480323	      0.00755904	     -0.00597393	    -40.72469007	      3.76702717	    -31.80942332	     -3.69649702	     32.31611145	     -6.40431101	     20.11768600	     63.83749445	    -24.52773506	      0.00000000	     34.32000000
      8.39000000	      0.72399702	      4.28945962	     -6.84356258	     -0.00482853	      0.00741831	     -0.00589625	    -40.68210876	      3.60655802	    -31.88160775	     -3.76005279	     32.04859703	     -6.27216867	     19.87586210	     63.24750003	    -24.52209425	      0.00000000	     34.32000000
      8.40000000	      0.69527776	      4.21196885	     -6.84633899	     -0.00488076	      0.00742093	     -0.00579298	    -40.65297340	      3.46892578	    -31.91075663	     -3.82558302	     31.87985712	     -6.17546579	     19.64225489	     62.74722041	    -24.50737196	      0.00000000	     34.32000000
      8.41000000	      0.71439757	      4.12511500	     -6.86419648	     -0.00491394	      0.00747233	     -0.00566127	    -40.60641480	      3.47925140	    -31.95442801	     -3.78784795	     31.72797463	     -6.12145273	     19.47982874	     62.32208130	    -24.51189056	      0.00000000	     34.32000000
      8.42000000	      0.65080702	      4.07602803	     -6.80901718	     -0.00493253	      0.00758355	     -0.00562778	    -40.57728596	      3.58465528	    -31.97166343	     -3.70526558	     31.69615072	     -6.13343480	     19.25333248	     61.63061564	    -24.53597809	      0.00000000	     34.32000000
      8.43000000	      0.68935706	      4.08655205	     -6.80264102	     -0.00490557	      0.00761607	     -0.00556348	    -40.53966856	      3.71517819	    -32.05223874	     -3.58786234	     31.57161276	     -6.12813927	     19.07658123	     61.04852447	    -24.54180597	      0.00000000	     34.32000000
      8.44000000	      0.88110783	      4.08647084	     -6.88079671	     -0.00486662	      0.00753297	     -0.00530306	    -40.46078962	      3.75682687	    -32.13339497	     -3.50654084	     31.31640360	     -6.04367558	     18.92198215	     60.65874212	    -24.52730527	      0.00000000	     34.32000000
      8.45000000	      1.02296666	      4.11317743	     -6.87571537	     -0.00494322	      0.00742706	     -0.00502047	    -40.37014178	      3.71588688	    -32.18678661	     -3.47726862	     31.03325208	     -5.92055623	     18.64239572	     60.15003737	    -24.46980665	      0.00000000	     34.32000000
      8.46000000	      0.99706229	      3.95667510	     -6.81533855	     -0.00499568	      0.00752065	     -0.00497829	    -40.09070023	      3.36867892	    -31.73612235	     -3.67713696	     30.90606844	     -5.63923850	     17.77246017	     59.44650951	    -22.89824491	      0.00000000	     34.32000000
      8.47000000	      1.30914851	      3.91382747	     -6.76851735	     -0.00503675	      0.00754171	     -0.00471882	    -40.05191750	      3.30740413	    -31.80503062	     -3.67978384	     30.69795597	     -5.55336397	     17.70379852	     59.22123285	    -22.90512196	      0.00000000	     34.32000000
      8.48000000	      1.09989040	      3.91399029	     -6.83643935	     -0.00504605	      0.00744059	     -0.00473787	    -40.05496440	      3.03688012	    -31.85589925	     -3.83594993	     30.49825580	     -5.42272603	     17.27640355	     58.35395594	    -22.81342767	      0.00000000	     34.32000000
      8.49000000	      1.13564981	      3.84358102	     -6.81687850	     -0.00506905	      0.00741644	     -0.00458773	    -40.00146357	      3.02474982	    -31.92217853	     -3.80149165	     30.28675078	     -5.34435653	     17.16566959	     57.83702540	    -22.82864496	      0.00000000	     34.32000000
      8.50000000	      1.18633778	      3.81884041	     -6.81366488	     -0.00510159	      0.00738368	     -0.00438766	    -39.94651875	      3.01025500	    -31.97083977	     -3.77207326	     30.09549094	     -5.26890606	     16.96668966	     57.25383653	    -22.83535270	      0.00000000	     34.32000000
      8.51000000	      1.35405351	      3.81598966	     -6.82791361	     -0.00515568	      0.00734188	     -0.00413191	    -39.86585069	      2.95460630	    -32.00965105	     -3.75823825	     29.84299364	     -5.15327435	     16.72017199	     56.74616815	    -22.81233547	      0.00000000	     34.32000000
      8.52000000	      1.50955761	      3.79481164	     -6.84452359	     -0.00519090	      0.00721463	     -0.00387400	    -39.77030974	      2.83064174	    -32.04700867	     -3.77952258	     29.52633986	     -4.99340880	     16.41586307	     56.26433594	    -22.75368726	      0.00000000	     34.32000000
      8.53000000	      1.52840871	      3.76024957	     -6.83266570	     -0.00523877	      0.00717636	     -0.00375111	    -39.67710929	      2.55325199	    -32.04121693	     -3.90805883	     29.19887858	     -4.78181098	     15.95652645	     55.73943629	    -22.62829628	      0.00000000	     34.32000000
      8.54000000	      1.81545484	      3.70089952	     -6.78250598	     -0.00529097	      0.00720613	     -0.00355686	    -39.64909918	      2.48865931	    -32.10863934	     -3.91637288	     29.01145434	     -4.70382128	     15.87164544	     55.53510633	    -22.62853562	      0.00000000	     34.32000000
      8.55000000	      1.45227038	      3.53430700	     -6.80774152	     -0.00522498	      0.00730577	     -0.00383711	    -39.43543359	      2.01728674	    -31.66290943	     -4.22575144	     28.95880368	     -4.42951551	     14.70854255	     54.65036469	    -22.09296909	      0.00000000	     34.32000000
      8.56000000	      1.50298566	      3.47296766	     -6.81584552	     -0.00522745	      0.00730469	     -0.00374119	    -39.38965184	      2.00592523	    -31.64467946	     -4.21537743	     28.88110678	     -4.38598925	     14.50604605	     54.08804043	    -21.79060496	      0.00000000	     34.32000000
